<?xml version="1.0" standalone="no"?>
<!DOCTYPE svg PUBLIC "-//W3C//DTD SVG 20010904//EN"
 "http://www.w3.org/TR/2001/REC-SVG-20010904/DTD/svg10.dtd">
<svg version="1.0" xmlns="http://www.w3.org/2000/svg"
 width="279.000000pt" height="58.000000pt" viewBox="0 0 279.000000 58.000000"
 preserveAspectRatio="xMidYMid meet">

<g transform="translate(0.000000,58.000000) scale(0.100000,-0.100000)"
fill="#000000" stroke="none">
<path d="M420 510 l0 -60 65 0 65 0 0 60 0 60 -65 0 -65 0 0 -60z"/>
<path d="M660 510 l0 -60 110 0 110 0 0 -160 0 -160 -45 0 -45 0 0 55 0 55
-65 0 -65 0 0 -115 0 -115 175 0 175 0 0 280 0 280 -175 0 -175 0 0 -60z"/>
<path d="M1120 290 l0 -280 65 0 65 0 0 110 0 110 45 0 45 0 0 -110 0 -110 65
0 65 0 0 280 0 280 -175 0 -175 0 0 -280z m220 110 l0 -50 -45 0 -45 0 0 50 0
50 45 0 45 0 0 -50z"/>
<path d="M1580 345 l0 -225 55 0 55 0 0 -55 0 -55 65 0 65 0 0 55 0 55 55 0
55 0 0 225 0 225 -65 0 -65 0 0 -165 0 -165 -45 0 -45 0 0 165 0 165 -65 0
-65 0 0 -225z"/>
<path d="M2030 290 l0 -280 175 0 175 0 0 60 0 60 -110 0 -110 0 0 50 0 50 55
0 55 0 0 60 0 60 -55 0 -55 0 0 50 0 50 110 0 110 0 0 60 0 60 -175 0 -175 0
0 -280z"/>
<path d="M420 180 l0 -170 65 0 65 0 0 170 0 170 -65 0 -65 0 0 -170z"/>
</g>
</svg>
