<?xml version="1.0" standalone="no"?>
<!DOCTYPE svg PUBLIC "-//W3C//DTD SVG 20010904//EN"
 "http://www.w3.org/TR/2001/REC-SVG-20010904/DTD/svg10.dtd">
<svg version="1.0" xmlns="http://www.w3.org/2000/svg"
 width="333.000000pt" height="325.000000pt" viewBox="0 0 333.000000 325.000000"
 preserveAspectRatio="xMidYMid meet">

<g transform="translate(0.000000,325.000000) scale(0.100000,-0.100000)"
fill="#000000" stroke="none">
<path d="M372 2965 c-66 -29 -62 50 -60 -1365 l3 -1280 28 -27 27 -28 1300 0
1300 0 27 28 28 27 0 1300 0 1300 -28 27 -27 28 -1283 2 c-1095 2 -1287 0
-1315 -12z m1308 -215 c11 -7 12 -12 3 -21 -9 -9 -8 -17 4 -35 8 -13 11 -24 7
-24 -5 0 16 -13 46 -28 33 -16 63 -40 75 -59 11 -18 26 -30 33 -28 15 6 15 1
-3 -60 -9 -27 -13 -55 -10 -63 2 -7 -4 -32 -14 -55 -10 -23 -24 -62 -32 -87
-7 -25 -18 -48 -23 -52 -7 -5 -7 -11 1 -19 9 -9 25 -6 67 11 l54 23 12 65 c15
86 33 127 64 148 34 22 95 21 142 -1 l36 -17 -29 -31 c-37 -42 -46 -48 -60
-42 -7 3 -19 8 -27 11 -9 4 -16 -6 -20 -31 -4 -21 -5 -39 -3 -41 7 -8 120 46
144 68 21 20 79 28 102 13 21 -12 11 -47 -21 -80 -37 -37 -40 -50 -15 -85 9
-13 17 -28 17 -32 0 -7 -91 -51 -95 -46 -12 16 -25 50 -21 57 3 5 0 11 -8 14
-23 9 -27 -22 -6 -43 11 -11 20 -24 20 -28 0 -4 -21 -18 -47 -31 -45 -22 -48
-22 -60 -4 -8 10 -12 25 -10 34 2 9 -4 21 -14 28 -11 6 -19 7 -19 2 0 -5 -11
-23 -25 -39 -23 -27 -23 -30 -5 -25 13 3 29 -5 50 -26 18 -17 39 -31 49 -31
23 0 41 -19 41 -44 0 -12 14 -39 32 -61 29 -39 30 -39 24 -11 -4 17 -16 42
-27 58 -21 29 -12 36 21 18 16 -8 19 -3 31 47 8 31 20 59 28 61 9 3 11 0 7 -7
-9 -14 12 -108 24 -116 5 -3 6 10 3 29 -6 39 4 106 16 106 4 0 13 -10 18 -22
10 -21 11 -18 18 25 4 26 5 64 2 83 -9 54 11 41 43 -28 19 -41 29 -55 30 -40
0 36 18 25 30 -20 7 -25 9 -60 4 -87 -4 -25 -6 -105 -5 -177 3 -150 -2 -168
-68 -227 l-41 -37 70 0 c38 0 70 -4 70 -9 0 -10 -97 -61 -117 -61 -18 0 -16
-6 9 -40 12 -16 19 -32 16 -35 -3 -4 -29 2 -58 11 -50 16 -54 16 -79 0 -14 -9
-53 -30 -86 -47 -40 -19 -52 -29 -37 -29 12 0 22 -4 22 -9 0 -9 -57 -21 -104
-21 -22 0 -27 -4 -22 -16 14 -38 18 -64 8 -64 -6 0 -13 4 -17 9 -3 5 -25 21
-49 34 -39 22 -50 24 -90 15 -31 -6 -51 -6 -65 2 -18 9 -21 8 -21 -11 0 -17 5
-20 25 -17 32 6 60 -14 52 -36 -10 -25 -70 -21 -104 8 l-28 24 -28 -24 c-34
-28 -94 -33 -104 -8 -8 21 10 37 44 38 18 1 29 7 31 19 3 16 1 17 -18 7 -15
-8 -35 -9 -68 -1 -52 11 -85 -1 -134 -47 -27 -25 -28 -25 -28 -5 0 12 4 33 9
46 9 24 8 24 -51 30 -61 5 -106 27 -57 27 18 0 9 8 -36 30 -32 17 -67 38 -77
47 -15 13 -24 14 -61 4 -25 -6 -52 -13 -61 -17 -22 -8 -20 12 4 46 l20 28 -32
6 c-35 7 -98 43 -98 57 0 5 30 9 68 9 l67 1 -37 34 c-67 62 -69 68 -68 221 0
77 -3 158 -6 181 -8 49 3 133 17 133 5 0 14 -10 19 -22 6 -17 9 -19 9 -6 1 23
43 108 53 108 4 0 8 -28 9 -62 0 -62 17 -132 18 -80 1 12 6 22 11 22 18 0 32
-53 27 -100 -5 -45 -5 -45 8 -15 8 17 14 47 15 68 0 20 4 37 9 37 12 0 31 -56
31 -91 0 -27 2 -28 25 -17 29 13 43 5 27 -15 -7 -7 -19 -31 -27 -53 l-16 -39
20 23 c26 29 31 28 31 -10 0 -17 3 -28 7 -24 12 12 12 40 1 54 -8 9 -8 16 0
24 7 7 12 21 12 33 0 27 18 45 46 45 13 0 25 8 29 19 7 22 58 46 77 35 7 -4 1
6 -14 23 -16 16 -28 34 -28 41 0 7 -3 12 -6 12 -9 0 -33 -27 -28 -33 3 -2 -1
-16 -7 -31 -13 -28 -25 -28 -82 1 -22 11 -27 19 -21 36 3 12 12 27 18 32 17
13 9 35 -10 28 -7 -3 -12 -9 -9 -13 3 -5 0 -20 -7 -34 -12 -28 -25 -28 -80 1
-32 16 -35 35 -10 61 25 26 23 46 -9 68 -15 10 -34 29 -40 42 -11 19 -10 25 4
39 21 21 87 21 102 -1 13 -17 143 -81 150 -74 2 2 2 21 -2 42 -4 26 -10 35
-19 32 -8 -4 -20 -9 -28 -12 -8 -3 -29 10 -50 32 -40 41 -44 54 -18 54 10 0
23 5 30 12 15 15 91 15 120 -1 27 -14 57 -72 66 -126 16 -95 14 -92 72 -115
56 -23 71 -22 61 5 -4 8 -7 19 -7 23 -1 4 -8 17 -16 30 -8 12 -12 27 -9 32 3
5 -6 32 -20 60 -14 27 -21 50 -16 50 5 0 3 24 -5 53 -16 61 -17 80 -5 72 5 -3
17 7 26 23 19 32 73 72 98 72 18 0 52 63 42 79 -7 12 2 31 13 31 4 0 14 -5 22
-10z m-940 -1650 c0 -5 -7 -10 -15 -10 -12 0 -15 -18 -15 -100 0 -118 -14
-161 -62 -190 -37 -23 -38 -23 -56 -12 -24 16 -2 42 32 39 l31 -2 3 125 c3
119 2 125 -20 142 -23 17 -22 18 40 18 35 0 62 -4 62 -10z m191 -87 c19 -54
44 -108 56 -121 13 -13 23 -25 23 -27 0 -3 -25 -5 -55 -5 -54 0 -65 6 -45 26
8 8 8 19 0 38 -9 24 -15 27 -47 24 -31 -2 -38 -8 -44 -31 -6 -20 -4 -30 7 -34
29 -11 13 -23 -31 -23 -48 0 -56 8 -26 27 10 6 33 49 50 95 34 88 56 128 70
128 5 0 24 -44 42 -97z m159 88 c0 -5 -6 -11 -12 -13 -9 -3 -5 -25 16 -76 15
-40 29 -72 30 -72 2 0 15 32 31 71 26 68 27 71 9 84 -17 13 -15 14 29 15 46 0
62 -12 31 -24 -15 -6 -87 -151 -100 -201 -3 -14 -11 -24 -16 -23 -5 2 -27 48
-49 103 -22 55 -49 107 -59 117 -11 9 -20 19 -20 22 0 3 25 6 55 6 30 0 55 -4
55 -9z m359 -23 c0 -33 0 -33 -16 -10 -10 14 -26 22 -44 22 -28 0 -29 -2 -29
-45 0 -41 2 -45 24 -45 14 0 28 5 31 10 13 21 25 9 25 -25 0 -36 -13 -47 -24
-20 -3 8 -17 15 -31 15 -25 0 -26 -2 -23 -47 3 -42 6 -48 27 -51 13 -2 36 6
52 17 37 28 40 27 28 -9 l-11 -30 -94 0 c-52 0 -94 3 -94 6 0 4 8 12 17 19 25
18 33 192 9 201 -38 14 -10 24 69 24 l85 0 -1 -32z m231 12 c25 -25 25 -58 0
-85 l-20 -21 30 -47 c16 -26 37 -50 45 -53 27 -11 16 -25 -17 -22 -26 2 -41
15 -78 63 l-45 60 -3 -45 c-2 -31 1 -48 12 -56 26 -19 19 -23 -39 -23 -53 1
-71 11 -40 23 12 4 15 25 15 101 0 76 -3 97 -15 101 -35 14 -10 24 60 24 62 0
79 -4 95 -20z m220 10 c0 -5 -7 -10 -15 -10 -12 0 -15 -18 -15 -100 0 -80 3
-102 15 -106 31 -12 13 -23 -37 -22 -67 1 -72 4 -48 28 17 17 20 34 20 105 0
67 -3 87 -15 91 -32 13 -13 24 40 24 30 0 55 -4 55 -10z m188 -17 c6 -16 25
-65 43 -111 17 -46 37 -86 45 -89 31 -12 11 -21 -41 -20 -51 1 -71 10 -44 19
8 3 9 15 4 36 -6 29 -10 32 -45 32 -25 0 -40 -5 -44 -16 -9 -24 -7 -54 4 -54
6 0 10 -4 10 -8 0 -5 -19 -7 -42 -6 -54 2 -58 3 -32 14 14 5 32 36 54 92 42
105 58 138 69 138 5 0 13 -12 19 -27z m284 -55 l77 -83 1 68 c0 51 -4 69 -15
73 -28 11 -15 24 25 24 40 0 53 -13 25 -24 -12 -4 -15 -27 -15 -116 0 -60 -4
-110 -8 -110 -4 0 -43 41 -86 90 -43 50 -81 90 -85 90 -5 0 -9 -31 -10 -69 -2
-62 0 -71 21 -85 26 -18 27 -18 -29 -21 -41 -3 -58 7 -30 18 10 4 16 33 20 91
7 93 3 116 -19 116 -8 0 -14 5 -14 10 0 6 15 10 33 10 27 1 43 -11 109 -82z
m329 -28 c22 -58 46 -110 54 -116 25 -19 17 -23 -37 -19 -67 4 -66 4 -46 15
14 9 15 16 6 40 -9 26 -15 30 -48 30 -33 0 -39 -4 -45 -27 -5 -20 -2 -31 11
-40 10 -7 16 -13 13 -14 -20 -4 -89 -6 -89 -2 0 3 8 12 19 21 10 10 31 49 46
87 39 103 56 136 67 133 6 -2 28 -51 49 -108z m-929 -290 c3 -62 1 -70 -15
-70 -16 0 -18 8 -16 63 2 65 5 77 19 77 4 0 10 -32 12 -70z m-133 35 c3 -19 3
-19 -16 -2 -26 23 -40 22 -58 -7 -31 -47 17 -105 58 -69 19 17 19 17 16 -2 -6
-32 -62 -33 -94 -1 -14 14 -25 32 -25 41 0 9 11 27 25 41 32 32 88 31 94 -1z
m181 5 c0 -5 -4 -10 -10 -10 -5 0 -10 5 -10 10 0 6 5 10 10 10 6 0 10 -4 10
-10z m-107 -37 c3 -5 7 -21 8 -38 4 -26 1 -30 -24 -32 -17 -1 -30 4 -34 13 -8
21 6 31 18 14 9 -12 10 -12 5 3 -3 9 -1 17 5 17 6 0 7 5 4 10 -5 8 -11 7 -21
-1 -14 -11 -20 1 -7 14 9 9 41 9 46 0z m107 -17 c0 -13 3 -31 6 -40 4 -11 0
-16 -13 -16 -15 0 -18 8 -18 40 0 26 4 40 12 40 7 0 13 -11 13 -24z"/>
<path d="M1650 2675 c0 -9 5 -15 11 -13 6 2 11 8 11 13 0 5 -5 11 -11 13 -6 2
-11 -4 -11 -13z"/>
<path d="M1583 2621 c-39 -18 -82 -65 -70 -77 3 -3 8 4 12 15 9 29 39 26 60
-6 l17 -26 20 41 c12 28 25 42 38 42 19 0 60 -48 60 -70 0 -7 9 -1 21 14 26
33 45 33 63 -1 20 -36 21 -21 1 16 -18 36 -88 71 -141 71 -21 0 -58 -9 -81
-19z"/>
<path d="M1642 2570 c-6 -11 -12 -26 -12 -34 0 -8 -6 -17 -12 -19 -7 -3 14 -6
47 -6 33 0 55 3 49 7 -6 4 -17 22 -25 40 -16 37 -29 40 -47 12z m36 -27 c-4
-22 -22 -20 -26 1 -2 10 3 16 13 16 10 0 15 -7 13 -17z"/>
<path d="M1531 2530 c-8 -26 -8 -30 7 -29 9 0 25 4 35 7 16 7 16 9 2 30 -21
30 -31 28 -44 -8z m39 0 c0 -5 -7 -10 -15 -10 -8 0 -15 5 -15 10 0 6 7 10 15
10 8 0 15 -4 15 -10z"/>
<path d="M1753 2537 l-21 -25 21 -6 c31 -8 64 -7 52 2 -6 4 -15 17 -20 30
l-10 23 -22 -24z m27 -7 c0 -5 -4 -10 -10 -10 -5 0 -10 5 -10 10 0 6 5 10 10
10 6 0 10 -4 10 -10z"/>
<path d="M1538 2483 c-29 -4 -32 -12 -22 -50 7 -26 24 -31 24 -8 0 25 29 29
52 9 15 -14 22 -15 25 -7 3 7 13 23 22 35 22 27 44 19 62 -20 13 -29 14 -30
27 -11 19 28 49 24 56 -7 8 -32 21 -22 29 22 6 30 4 32 -31 38 -40 6 -199 6
-244 -1z"/>
<path d="M1300 2466 c0 -1 9 -19 19 -40 11 -21 23 -62 27 -92 3 -30 10 -54 15
-54 5 0 9 7 9 15 0 18 17 20 23 3 2 -7 8 -10 12 -6 12 12 -13 113 -35 141 -11
14 -31 27 -45 29 -14 3 -25 5 -25 4z"/>
<path d="M1995 2461 c-11 -5 -27 -17 -37 -27 -29 -34 -55 -165 -26 -136 17 17
28 15 28 -4 0 -35 18 -1 24 47 4 29 16 69 27 90 20 40 18 44 -16 30z"/>
<path d="M1253 2453 c11 -3 16 -11 13 -18 -3 -10 0 -12 11 -8 12 5 15 2 10
-10 -6 -17 4 -23 16 -11 12 12 -25 54 -47 53 -18 -1 -18 -2 -3 -6z"/>
<path d="M1643 2429 c-11 -28 -15 -30 -51 -26 -28 3 -39 0 -39 -10 0 -10 7
-13 21 -9 12 3 48 6 81 6 33 0 55 4 50 8 -6 4 -16 19 -24 35 -18 35 -24 34
-38 -4z m35 -11 c-6 -18 -28 -21 -28 -4 0 9 7 16 16 16 9 0 14 -5 12 -12z"/>
<path d="M2043 2448 c-23 -30 -23 -37 -1 -49 19 -9 21 -9 11 2 -17 18 -16 32
1 26 10 -4 13 -1 10 8 -3 7 2 15 13 18 15 4 15 5 -3 6 -12 0 -26 -5 -31 -11z"/>
<path d="M1740 2400 l-25 -6 29 -8 c32 -8 38 -5 28 10 -4 6 -18 8 -32 4z"/>
<path d="M1110 2371 c-12 -24 -13 -34 -1 -27 9 6 22 46 15 46 -2 0 -8 -9 -14
-19z"/>
<path d="M2206 2370 c8 -31 24 -50 24 -29 0 8 -7 24 -16 35 -14 18 -15 18 -8
-6z"/>
<path d="M1136 2351 c-18 -35 -19 -41 -7 -41 11 0 36 59 28 66 -3 3 -13 -8
-21 -25z"/>
<path d="M2160 2375 c0 -17 32 -65 40 -60 12 7 -16 65 -30 65 -6 0 -10 -2 -10
-5z"/>
<path d="M1558 2363 c-20 -5 -22 -12 -8 -33 9 -13 11 -13 20 0 8 13 13 13 31
2 18 -12 23 -12 30 0 5 7 9 16 9 21 0 19 42 5 52 -18 10 -22 13 -23 20 -10 12
20 35 19 47 -2 9 -16 11 -15 19 7 8 21 6 26 -12 32 -24 7 -182 8 -208 1z"/>
<path d="M1166 2334 c-4 -11 15 -25 80 -55 47 -21 88 -39 91 -39 2 0 3 9 1 21
-2 15 -24 30 -81 55 -43 19 -79 34 -81 34 -2 0 -7 -7 -10 -16z"/>
<path d="M1646 2322 l-17 -32 31 0 c33 0 35 4 16 39 l-14 25 -16 -32z m24 -8
c0 -8 -5 -12 -10 -9 -6 4 -8 11 -5 16 9 14 15 11 15 -7z"/>
<path d="M2063 2314 c-57 -26 -73 -38 -73 -55 0 -11 4 -19 8 -17 103 42 162
74 160 87 -5 23 -19 21 -95 -15z"/>
<path d="M1159 2287 c-1 -7 -1 -19 0 -29 1 -9 -8 -23 -21 -32 -24 -17 -20 -25
26 -44 27 -12 28 -11 23 8 -3 14 2 29 14 41 23 23 33 24 53 3 21 -21 20 -39
-4 -62 -20 -18 -20 -18 15 -35 l35 -17 0 28 c0 16 9 35 21 45 11 10 19 20 17
21 -1 2 -42 22 -90 44 -54 25 -88 36 -89 29z"/>
<path d="M1588 2293 c7 -3 16 -2 19 1 4 3 -2 6 -13 5 -11 0 -14 -3 -6 -6z"/>
<path d="M1728 2293 c7 -3 16 -2 19 1 4 3 -2 6 -13 5 -11 0 -14 -3 -6 -6z"/>
<path d="M2081 2259 c-47 -22 -87 -42 -90 -44 -2 -3 6 -15 18 -26 13 -12 20
-28 17 -36 -11 -27 4 -33 39 -16 35 17 35 17 15 35 -31 29 -21 78 16 78 20 0
46 -31 40 -47 -11 -27 4 -33 39 -16 l35 17 -21 19 c-12 11 -19 27 -16 37 10
37 -9 37 -92 -1z"/>
<path d="M1608 2273 c-70 -8 -39 -18 57 -18 52 0 95 3 95 8 0 4 -10 7 -22 7
-13 0 -39 2 -58 4 -19 2 -52 2 -72 -1z"/>
<path d="M1400 2255 c0 -18 -17 -20 -23 -2 -2 6 -8 9 -12 5 -11 -10 11 -81 33
-107 9 -12 32 -24 50 -27 l33 -7 -20 34 c-10 19 -25 53 -32 77 -12 41 -29 57
-29 27z"/>
<path d="M1900 2228 c-7 -24 -21 -58 -32 -75 -17 -29 -18 -33 -3 -33 30 0 72
29 83 57 20 49 25 83 13 83 -6 0 -11 -4 -11 -10 0 -5 -7 -10 -16 -10 -8 0 -13
4 -9 9 3 5 1 12 -4 16 -6 3 -15 -14 -21 -37z"/>
<path d="M1620 2242 c-23 -3 -50 -26 -50 -42 0 -4 11 -12 25 -18 22 -10 27 -9
41 13 21 32 15 51 -16 47z"/>
<path d="M1680 2234 c0 -7 5 -24 11 -37 10 -22 14 -23 40 -14 16 6 29 14 29
17 -2 28 -80 62 -80 34z"/>
<path d="M1456 2207 c8 -28 0 -22 74 -56 52 -23 69 -27 87 -18 25 11 34 6
-115 73 l-53 23 7 -22z"/>
<path d="M1737 2167 c-75 -34 -137 -64 -137 -67 0 -3 4 -11 8 -17 11 -18 239
83 260 115 8 12 13 24 11 27 -3 2 -66 -24 -142 -58z"/>
<path d="M1652 2186 c-8 -19 -8 -25 2 -29 23 -9 33 6 21 30 l-12 23 -11 -24z"/>
<path d="M1011 2157 c-16 -56 -2 -127 26 -127 13 0 14 7 8 43 -4 23 -11 62
-14 87 l-6 45 -14 -48z"/>
<path d="M2292 2129 c-7 -36 -12 -73 -12 -82 0 -32 27 -17 40 22 10 32 10 46
-2 82 l-15 44 -11 -66z"/>
<path d="M1494 2135 c11 -8 27 -15 35 -15 10 1 7 6 -9 15 -33 19 -50 18 -26 0z"/>
<path d="M1805 2135 c-25 -12 -26 -14 -9 -15 12 0 27 7 34 15 15 18 14 18 -25
0z"/>
<path d="M961 2085 c-1 -57 8 -78 28 -66 11 7 9 19 -7 62 l-21 54 0 -50z"/>
<path d="M2343 2080 c-22 -52 -20 -69 9 -70 10 0 20 61 16 95 -3 26 -5 24 -25
-25z"/>
<path d="M1434 2091 c15 -16 22 -18 33 -10 16 14 16 14 -22 23 -29 7 -29 7
-11 -13z"/>
<path d="M1866 2101 c-27 -5 -28 -7 -12 -20 15 -12 19 -11 37 7 11 12 16 21
12 21 -4 -1 -21 -4 -37 -8z"/>
<path d="M1078 2087 c-12 -29 -10 -73 3 -60 6 6 9 26 7 44 -2 26 -5 30 -10 16z"/>
<path d="M1354 2084 c-18 -14 -18 -15 4 -4 12 6 33 8 45 5 17 -5 19 -4 7 4
-21 15 -33 14 -56 -5z"/>
<path d="M1550 2085 c0 -9 6 -12 15 -9 8 4 15 1 15 -5 0 -6 -5 -11 -12 -11 -9
0 -9 -3 0 -12 19 -19 37 4 23 31 -13 24 -41 28 -41 6z"/>
<path d="M1701 2091 c-10 -6 -10 -10 -1 -16 13 -8 24 -1 19 14 -3 6 -10 7 -18
2z"/>
<path d="M1735 2080 c-9 -28 10 -49 27 -32 9 9 8 12 -5 12 -9 0 -17 5 -17 11
0 6 9 8 21 4 15 -5 20 -3 17 6 -8 23 -36 22 -43 -1z"/>
<path d="M1914 2088 c-5 -8 -2 -9 9 -5 10 4 30 2 45 -3 25 -9 26 -9 8 5 -24
18 -52 19 -62 3z"/>
<path d="M2241 2063 c-1 -24 4 -43 9 -43 12 0 12 37 0 65 -7 15 -9 10 -9 -22z"/>
<path d="M1524 2067 c3 -10 6 -23 6 -28 0 -5 5 -9 10 -9 14 0 12 13 -6 36 -14
17 -15 17 -10 1z"/>
<path d="M1790 2071 c0 -5 -3 -18 -6 -28 -5 -16 -4 -16 10 1 18 23 20 36 6 36
-5 0 -10 -4 -10 -9z"/>
<path d="M1817 2045 c-9 -19 -13 -36 -8 -39 4 -3 15 10 24 29 9 19 13 36 8 39
-4 3 -15 -10 -24 -29z"/>
<path d="M1349 2052 c-13 -10 -32 -21 -41 -25 -32 -11 -15 -92 25 -125 11 -10
19 -8 38 8 l24 20 -32 -6 c-26 -5 -34 -3 -39 12 -3 11 -10 27 -16 38 -8 15 -3
24 22 49 l31 30 37 -20 c26 -14 36 -25 34 -39 -2 -10 -3 -26 -4 -34 0 -8 -7
-23 -15 -32 -13 -15 -13 -16 7 -11 48 13 51 83 5 129 -29 29 -45 30 -76 6z"/>
<path d="M1480 2065 c0 -15 34 -69 37 -59 5 16 -15 64 -27 64 -5 0 -10 -2 -10
-5z"/>
<path d="M1635 2058 c-11 -6 -22 -15 -25 -19 -3 -4 -20 -13 -38 -20 -31 -13
-24 -14 86 -14 66 0 118 3 115 8 -2 4 -11 7 -20 7 -8 0 -28 11 -45 25 -33 28
-44 30 -73 13z"/>
<path d="M1914 2058 c-46 -22 -60 -106 -22 -132 26 -19 51 -21 27 -3 -24 18
-33 81 -14 97 8 7 15 9 15 4 0 -5 5 -1 11 9 13 22 24 22 59 -5 35 -25 36 -33
14 -77 -13 -27 -20 -32 -40 -27 -28 7 -32 -9 -5 -23 13 -7 23 -7 33 2 44 36
60 118 25 125 -11 2 -27 12 -38 23 -21 21 -34 23 -65 7z"/>
<path d="M2171 2029 c-1 -25 6 -42 24 -59 31 -29 31 -26 1 41 l-25 54 0 -36z"/>
<path d="M1128 2008 c-24 -57 -23 -67 3 -34 12 15 19 37 17 51 -3 23 -5 21
-20 -17z"/>
<path d="M1461 2040 c-1 -18 16 -46 23 -40 2 3 -2 16 -9 30 -8 15 -14 19 -14
10z"/>
<path d="M1850 2030 c-6 -12 -9 -24 -7 -27 3 -2 11 5 17 17 6 12 9 24 7 27 -3
2 -11 -5 -17 -17z"/>
<path d="M2045 2030 c3 -5 8 -10 11 -10 2 0 4 5 4 10 0 6 -5 10 -11 10 -5 0
-7 -4 -4 -10z"/>
<path d="M1360 2020 c0 -5 5 -10 10 -10 6 0 10 5 10 10 0 6 -4 10 -10 10 -5 0
-10 -4 -10 -10z"/>
<path d="M1950 2020 c0 -5 5 -10 10 -10 6 0 10 5 10 10 0 6 -4 10 -10 10 -5 0
-10 -4 -10 -10z"/>
<path d="M992 1994 c-20 -13 -22 -24 -22 -95 l0 -80 22 15 c27 19 69 21 86 4
9 -9 12 6 12 70 0 70 -3 83 -19 92 -28 14 -53 13 -79 -6z"/>
<path d="M1395 2000 c-3 -5 1 -10 10 -10 9 0 13 5 10 10 -3 6 -8 10 -10 10 -2
0 -7 -4 -10 -10z"/>
<path d="M1910 2000 c0 -5 5 -10 11 -10 5 0 7 5 4 10 -3 6 -8 10 -11 10 -2 0
-4 -4 -4 -10z"/>
<path d="M2258 1999 c-15 -8 -18 -24 -18 -91 0 -64 3 -79 12 -70 16 16 43 15
78 -3 l30 -16 0 80 c0 71 -2 82 -22 95 -26 18 -55 20 -80 5z"/>
<path d="M1158 1972 c-30 -32 -48 -64 -48 -88 0 -32 41 9 61 61 10 27 17 50
16 52 -2 1 -15 -10 -29 -25z"/>
<path d="M1320 1990 c0 -5 7 -10 16 -10 8 0 12 5 9 10 -3 6 -10 10 -16 10 -5
0 -9 -4 -9 -10z"/>
<path d="M1980 1990 c0 -5 5 -10 10 -10 6 0 10 5 10 10 0 6 -4 10 -10 10 -5 0
-10 -4 -10 -10z"/>
<path d="M1533 1983 c-24 -2 -43 -9 -43 -14 0 -6 8 -8 18 -5 39 11 182 16 250
8 39 -4 72 -5 72 -1 0 15 -176 23 -297 12z"/>
<path d="M2143 1983 c3 -5 10 -26 16 -49 8 -28 19 -44 37 -53 26 -11 26 -11
19 16 -8 32 -51 93 -66 93 -6 0 -8 -3 -6 -7z"/>
<path d="M1255 1970 c3 -5 8 -10 11 -10 2 0 4 5 4 10 0 6 -5 10 -11 10 -5 0
-7 -4 -4 -10z"/>
<path d="M2055 1970 c3 -5 8 -10 11 -10 2 0 4 5 4 10 0 6 -5 10 -11 10 -5 0
-7 -4 -4 -10z"/>
<path d="M1345 1950 c-3 -5 -1 -10 4 -10 6 0 11 5 11 10 0 6 -2 10 -4 10 -3 0
-8 -4 -11 -10z"/>
<path d="M1390 1950 c0 -5 5 -10 10 -10 6 0 10 5 10 10 0 6 -4 10 -10 10 -5 0
-10 -4 -10 -10z"/>
<path d="M1550 1953 c-38 -3 -48 -8 -58 -32 -14 -32 -50 -52 -79 -45 -11 3
-25 -2 -32 -10 -17 -21 -45 -20 -66 0 -14 15 -19 14 -55 -10 -79 -52 -113
-134 -81 -193 11 -22 74 -62 154 -100 26 -12 47 -26 47 -31 0 -18 33 -23 50
-7 14 13 25 13 94 0 96 -18 189 -19 281 0 60 11 73 11 92 -1 22 -14 53 -10 53
7 0 5 32 26 71 46 106 56 111 60 125 85 34 61 5 137 -73 192 -40 28 -44 29
-61 13 -23 -21 -46 -22 -61 -3 -7 8 -28 14 -48 13 -35 -1 -49 9 -78 57 -8 13
-31 17 -120 20 -60 2 -130 2 -155 -1z m120 -48 c0 -8 9 -15 20 -15 13 0 20 -7
20 -20 0 -13 -7 -20 -20 -20 -18 0 -20 -7 -20 -66 0 -57 2 -65 18 -62 25 5 30
75 5 94 -16 12 -11 13 40 14 31 0 57 -4 57 -10 0 -5 -4 -10 -10 -10 -6 0 -10
-38 -10 -94 0 -53 4 -98 10 -101 22 -14 7 -20 -42 -18 -68 2 -66 2 -45 14 11
7 17 22 17 49 0 43 2 42 -80 43 l-34 0 3 -44 c1 -24 7 -45 12 -47 25 -9 3 -17
-46 -17 -52 0 -67 6 -45 20 6 3 10 48 10 101 0 56 -4 94 -10 94 -5 0 -10 5
-10 10 0 6 25 10 56 10 44 0 54 -3 46 -12 -6 -7 -12 -31 -14 -53 -2 -31 1 -40
15 -43 15 -3 17 5 17 62 0 59 -2 66 -20 66 -12 0 -20 7 -20 16 0 9 9 18 20 21
11 3 20 12 20 19 0 8 9 14 20 14 11 0 20 -7 20 -15z m295 -75 c13 0 29 -40 19
-49 -2 -3 -12 5 -20 18 -20 28 -58 25 -62 -5 -2 -15 9 -31 38 -54 54 -43 65
-64 50 -100 -27 -66 -151 -68 -150 -2 l1 27 14 -26 c24 -45 85 -48 85 -4 0 15
-16 35 -45 59 -37 31 -45 43 -45 70 0 45 46 82 88 70 8 -2 19 -4 27 -4z m-525
-10 c0 -5 -4 -10 -10 -10 -6 0 -10 -38 -10 -94 0 -53 4 -98 10 -101 22 -14 7
-20 -42 -18 -68 2 -66 2 -45 14 24 14 25 173 0 201 -15 17 -14 18 40 18 32 0
57 -4 57 -10z"/>
<path d="M1920 1950 c0 -5 5 -10 10 -10 6 0 10 5 10 10 0 6 -4 10 -10 10 -5 0
-10 -4 -10 -10z"/>
<path d="M1966 1951 c-4 -5 -2 -12 3 -15 5 -4 12 -2 15 3 4 5 2 12 -3 15 -5 4
-12 2 -15 -3z"/>
<path d="M2080 1940 c0 -11 0 -23 -1 -27 0 -4 4 -9 10 -11 6 -2 11 10 11 27 0
17 -4 31 -10 31 -5 0 -10 -9 -10 -20z"/>
<path d="M1270 1940 c0 -5 5 -10 11 -10 5 0 7 5 4 10 -3 6 -8 10 -11 10 -2 0
-4 -4 -4 -10z"/>
<path d="M1448 1918 c-30 -31 -22 -38 12 -10 13 10 21 23 19 28 -2 5 -16 -3
-31 -18z"/>
<path d="M2040 1940 c0 -5 5 -10 11 -10 5 0 7 5 4 10 -3 6 -8 10 -11 10 -2 0
-4 -4 -4 -10z"/>
<path d="M1850 1932 c0 -13 37 -45 48 -41 5 2 -4 14 -20 27 -15 13 -28 19 -28
14z"/>
<path d="M1158 1877 c-29 -18 -48 -37 -48 -48 0 -23 3 -23 40 -4 25 13 68 72
58 79 -2 2 -24 -11 -50 -27z"/>
<path d="M2120 1897 c0 -22 49 -74 78 -82 37 -11 29 31 -10 51 -18 9 -41 23
-50 32 -16 14 -18 13 -18 -1z"/>
<path d="M2060 1895 c0 -4 22 -27 49 -51 55 -49 76 -97 68 -150 -4 -20 -2 -32
4 -29 14 9 11 93 -5 123 -19 35 -116 125 -116 107z"/>
<path d="M1208 1853 c-53 -48 -81 -110 -72 -158 9 -52 22 -52 17 0 -8 66 3 92
59 146 60 57 57 66 -4 12z"/>
<path d="M1338 1873 c7 -3 16 -2 19 1 4 3 -2 6 -13 5 -11 0 -14 -3 -6 -6z"/>
<path d="M1968 1873 c6 -2 18 -2 25 0 6 3 1 5 -13 5 -14 0 -19 -2 -12 -5z"/>
<path d="M1017 1823 c-12 -12 -7 -22 8 -17 8 4 15 10 15 15 0 11 -14 12 -23 2z"/>
<path d="M1060 1813 c0 -15 -7 -23 -22 -25 -36 -5 -28 -32 9 -36 28 -3 33 1
39 23 5 18 1 32 -10 43 -15 15 -16 15 -16 -5z"/>
<path d="M2252 1817 c-8 -9 -12 -26 -10 -39 2 -18 10 -24 36 -26 27 -3 32 0
32 17 0 14 -6 21 -19 21 -12 0 -21 8 -23 22 -3 19 -4 20 -16 5z"/>
<path d="M2292 1821 c4 -13 18 -16 19 -4 0 4 -5 9 -11 12 -7 2 -11 -2 -8 -8z"/>
<path d="M977 1797 c-26 -66 5 -111 85 -125 l57 -9 -2 36 c-1 20 2 48 6 64 10
36 -4 34 -25 -3 -30 -53 -101 -34 -110 30 -3 22 -4 22 -11 7z"/>
<path d="M2330 1783 c0 -36 -16 -53 -50 -53 -27 0 -60 27 -60 47 0 6 -6 13
-14 16 -12 5 -13 1 -4 -24 6 -17 8 -48 5 -70 -4 -34 -3 -39 11 -35 10 3 39 8
65 12 39 5 50 12 62 35 19 36 19 73 0 89 -13 11 -15 8 -15 -17z"/>
<path d="M1040 1651 c0 -13 55 -38 87 -39 36 -2 52 12 25 23 -27 11 -112 23
-112 16z"/>
<path d="M2234 1650 c-29 -4 -57 -11 -63 -14 -23 -14 -10 -26 28 -26 28 0 48
7 68 25 15 13 26 24 23 23 -3 0 -28 -4 -56 -8z"/>
<path d="M1161 1593 c-11 -10 -24 -32 -27 -50 -6 -30 -3 -34 49 -67 31 -20 59
-36 62 -36 3 0 5 9 5 21 0 27 18 60 44 81 12 10 15 18 8 18 -7 0 -30 11 -52
25 -47 30 -61 31 -89 8z"/>
<path d="M2068 1581 l-48 -28 25 -23 c14 -13 27 -38 31 -56 l6 -33 37 19 c58
31 71 45 71 77 0 31 -35 73 -61 72 -8 0 -35 -13 -61 -28z"/>
<path d="M1045 1590 c-83 -5 -83 -8 -2 -34 26 -8 75 4 82 22 3 8 4 15 3 16 -2
1 -39 -1 -83 -4z"/>
<path d="M2199 1583 c14 -27 53 -36 99 -23 68 19 72 30 11 30 -31 0 -71 3 -89
6 -30 7 -32 6 -21 -13z"/>
<path d="M1066 1519 c-34 -27 -30 -31 17 -18 25 7 34 14 30 24 -7 20 -15 19
-47 -6z"/>
<path d="M2210 1526 c0 -14 67 -43 76 -33 7 7 -46 47 -62 47 -8 0 -14 -6 -14
-14z"/>
<path d="M1305 1520 c6 -9 99 -40 119 -39 9 0 -111 48 -122 49 -2 0 0 -4 3
-10z"/>
<path d="M1950 1505 c-36 -13 -57 -24 -48 -24 21 -1 110 28 123 40 14 14 -3
10 -75 -16z"/>
<path d="M1440 1510 c0 -5 6 -10 14 -10 8 0 23 -3 33 -6 16 -5 16 -4 -1 10
-22 18 -46 21 -46 6z"/>
<path d="M1840 1504 l-25 -15 25 5 c14 3 31 6 38 6 7 0 10 5 7 10 -8 13 -15
12 -45 -6z"/>
<path d="M1280 1500 c0 -5 9 -11 19 -15 25 -8 34 -31 21 -56 -12 -22 -7 -24
21 -9 19 11 19 12 -6 45 -26 33 -55 52 -55 35z"/>
<path d="M1520 1499 c0 -4 5 -11 10 -14 17 -10 11 -61 -10 -88 l-21 -26 36 -7
c29 -5 41 -2 59 15 12 11 25 21 29 21 10 0 8 -45 -3 -74 -14 -37 6 -33 26 5
l16 31 19 -31 c10 -17 24 -31 31 -31 9 0 9 3 0 12 -13 13 -17 88 -4 88 4 0 13
-9 20 -20 12 -20 38 -25 79 -14 22 6 22 6 2 27 -20 22 -25 67 -9 96 8 17 6 17
-33 10 -54 -10 -150 -10 -204 0 -24 5 -43 5 -43 0z"/>
<path d="M1997 1472 l-37 -38 27 -14 c16 -8 33 -16 38 -19 6 -2 2 5 -7 16 -25
28 -22 51 7 65 14 6 25 15 25 20 0 17 -17 7 -53 -30z"/>
<path d="M1270 1457 c0 -30 10 -40 27 -26 18 16 16 26 -7 39 -17 9 -20 8 -20
-13z"/>
<path d="M1350 1473 c0 -2 15 -12 33 -23 33 -21 117 -28 117 -10 0 6 -1 10 -2
10 -2 1 -36 7 -75 14 -40 7 -73 11 -73 9z"/>
<path d="M1935 1470 c-22 -5 -57 -11 -77 -15 -54 -8 -47 -25 10 -25 41 0 112
28 112 45 0 3 -1 5 -2 4 -2 -1 -21 -5 -43 -9z"/>
<path d="M2036 1467 c-13 -9 -17 -20 -12 -32 6 -17 8 -17 22 -3 9 9 14 23 12
32 -3 15 -5 15 -22 3z"/>
<path d="M1350 1405 c-24 -14 -23 -14 30 -14 30 1 66 5 80 9 l25 8 -26 1 c-15
1 -39 3 -55 6 -16 3 -40 -1 -54 -10z"/>
<path d="M1885 1411 c-36 -6 -38 -7 -15 -14 14 -3 50 -7 80 -7 53 1 54 1 30
15 -27 15 -33 16 -95 6z"/>
<path d="M1440 1377 c-30 -9 -64 -36 -56 -45 4 -3 96 48 96 54 0 2 -1 4 -2 3
-2 -1 -19 -6 -38 -12z"/>
<path d="M1855 1379 c9 -14 85 -51 85 -40 0 13 -20 27 -58 39 -19 7 -30 7 -27
1z"/>
<path d="M1555 1300 c-3 -5 1 -10 10 -10 9 0 13 5 10 10 -3 6 -8 10 -10 10 -2
0 -7 -4 -10 -10z"/>
<path d="M1750 1300 c0 -5 7 -10 16 -10 8 0 12 5 9 10 -3 6 -10 10 -16 10 -5
0 -9 -4 -9 -10z"/>
<path d="M852 1011 c-10 -29 -10 -31 14 -31 22 0 24 3 19 23 -12 37 -22 40
-33 8z"/>
<path d="M1590 1040 c0 -43 2 -49 18 -43 29 11 42 25 42 47 0 27 -18 46 -42
46 -15 0 -18 -9 -18 -50z"/>
<path d="M2036 1018 c-10 -38 -7 -45 17 -43 12 1 21 5 20 8 -2 4 -5 18 -9 32
-8 31 -20 32 -28 3z"/>
<path d="M2621 1017 c-16 -40 -14 -45 14 -43 20 1 24 5 19 21 -14 46 -22 51
-33 22z"/>
</g>
</svg>
